<svg width="137" height="327" viewBox="0 0 137 327" fill="none" xmlns="http://www.w3.org/2000/svg">
<path d="M10.7264 270.609L37.0214 180.825H102.511C107.472 200.27 120.064 239.667 123.349 255.899C126.325 270.609 134.234 282.784 135.752 309.161C136.149 316.06 125.664 323.871 120.372 326.915C95.069 326.577 40.5936 326.103 25.1142 326.915C5.76504 327.929 2.78825 318.292 0.307579 309.161C-1.67695 301.856 6.42656 280.416 10.7264 270.609Z" fill="url(#paint0_linear_262_1364)" fill-opacity="0.47"/>
<path fill-rule="evenodd" clip-rule="evenodd" d="M121.295 0.00326872C121.707 -0.035066 122.073 0.268203 122.111 0.680639C122.149 1.09307 121.846 1.4585 121.433 1.49683C120.678 1.56701 119.433 1.99405 117.855 2.87854C116.296 3.75206 114.47 5.03913 112.564 6.75975C108.753 10.2001 104.645 15.3525 101.714 22.3447C94.511 39.5291 88.8732 58.1769 88.8732 83.4327C88.8732 131.883 95.9688 157.42 102.968 182.608C104.231 187.156 105.492 191.693 106.707 196.352L106.71 196.361L133.551 288.923C135.179 294.538 136.006 300.355 136.006 306.201C136.006 317.495 126.85 326.651 115.556 326.651H68.2778H20.3091C9.39635 326.651 0.54985 317.804 0.54985 306.892C0.54985 300.587 1.54126 294.34 3.47424 288.34C10.0339 267.982 25.8847 218.251 31.3323 196.37C32.214 192.828 33.1352 189.288 34.0717 185.69L34.0718 185.689C40.5157 160.927 47.6825 133.387 47.6825 83.4327C47.6825 58.1769 42.0446 39.5291 34.8414 22.3447C31.9104 15.3525 27.8023 10.2001 23.9915 6.75975C22.0856 5.03913 20.2598 3.75206 18.701 2.87854C17.1226 1.99405 15.8772 1.56701 15.1222 1.49683C14.7097 1.4585 14.4065 1.09307 14.4448 0.680639C14.4831 0.268203 14.8486 -0.035066 15.261 0.00326872C16.3251 0.102178 17.7878 0.647377 19.4343 1.56998C21.1003 2.50356 23.0162 3.85845 24.9967 5.64635C28.9586 9.22307 33.2021 14.5539 36.2247 21.7649C43.4802 39.0738 49.1825 57.9224 49.1825 83.4327C49.1825 133.582 41.9743 161.28 35.5236 186.067L35.5234 186.067C34.5875 189.664 33.6676 193.199 32.7879 196.732C27.325 218.674 11.4548 268.463 4.90196 288.8C3.0164 294.653 2.04985 300.745 2.04985 306.892C2.04985 316.976 10.2248 325.151 20.3091 325.151H68.2778H115.556C126.022 325.151 134.506 316.667 134.506 306.201C134.506 300.497 133.699 294.82 132.111 289.341L105.264 196.76L105.261 196.75L105.258 196.74C104.047 192.095 102.788 187.565 101.525 183.02L101.524 183.017C94.5178 157.804 87.3732 132.093 87.3732 83.4327C87.3732 57.9224 93.0755 39.0738 100.331 21.7649C103.354 14.5539 107.597 9.22307 111.559 5.64635C113.539 3.85845 115.455 2.50356 117.121 1.56998C118.768 0.647377 120.231 0.102178 121.295 0.00326872Z" fill="url(#paint1_linear_262_1364)"/>
<defs>
<linearGradient id="paint0_linear_262_1364" x1="7.25344" y1="323.364" x2="64.9628" y2="185.782" gradientUnits="userSpaceOnUse">
<stop offset="0.109924" stop-color="#A967F5"/>
<stop offset="1" stop-color="#648AEB" stop-opacity="0.47"/>
</linearGradient>
<linearGradient id="paint1_linear_262_1364" x1="91.3446" y1="61.5894" x2="21.4685" y2="332.786" gradientUnits="userSpaceOnUse">
<stop stop-color="#00B0F3"/>
<stop offset="1" stop-color="#CF9FFF"/>
</linearGradient>
</defs>
</svg>
