<svg xmlns="http://www.w3.org/2000/svg" xmlns:xlink="http://www.w3.org/1999/xlink" viewBox="0 0 800 800"><defs><style>.cls-1,.cls-2,.cls-50{fill:none;}.cls-2{clip-rule:evenodd;}.cls-3,.cls-59{isolation:isolate;}.cls-4{clip-path:url(#clip-path);}.cls-5{clip-path:url(#clip-path-2);}.cls-6{clip-path:url(#clip-path-3);}.cls-7{clip-path:url(#clip-path-5);}.cls-8{fill:#fff;}.cls-9{clip-path:url(#clip-path-7);}.cls-10{clip-path:url(#clip-path-9);}.cls-11{clip-path:url(#clip-path-11);}.cls-12{clip-path:url(#clip-path-13);}.cls-13{clip-path:url(#clip-path-15);}.cls-14{clip-path:url(#clip-path-17);}.cls-15{clip-path:url(#clip-path-19);}.cls-16{clip-path:url(#clip-path-21);}.cls-17{clip-path:url(#clip-path-23);}.cls-18{clip-path:url(#clip-path-25);}.cls-19{clip-path:url(#clip-path-27);}.cls-20{clip-path:url(#clip-path-29);}.cls-21{clip-path:url(#clip-path-31);}.cls-22{clip-path:url(#clip-path-33);}.cls-23{clip-path:url(#clip-path-35);}.cls-24{clip-path:url(#clip-path-37);}.cls-25{clip-path:url(#clip-path-39);}.cls-26{clip-path:url(#clip-path-41);}.cls-27{clip-path:url(#clip-path-43);}.cls-28{clip-path:url(#clip-path-45);}.cls-29{clip-path:url(#clip-path-47);}.cls-30{clip-path:url(#clip-path-49);}.cls-31{clip-path:url(#clip-path-51);}.cls-32{clip-path:url(#clip-path-53);}.cls-33{clip-path:url(#clip-path-55);}.cls-34{clip-path:url(#clip-path-57);}.cls-35{clip-path:url(#clip-path-59);}.cls-36{clip-path:url(#clip-path-61);}.cls-37{clip-path:url(#clip-path-63);}.cls-38{clip-path:url(#clip-path-65);}.cls-39{clip-path:url(#clip-path-67);}.cls-40{clip-path:url(#clip-path-69);}.cls-41{clip-path:url(#clip-path-71);}.cls-42{fill:#ff322a;}.cls-43{clip-path:url(#clip-path-73);}.cls-44{clip-path:url(#clip-path-75);}.cls-45{clip-path:url(#clip-path-77);}.cls-46{clip-path:url(#clip-path-79);}.cls-47{clip-path:url(#clip-path-81);}.cls-48{clip-path:url(#clip-path-82);}.cls-49{clip-path:url(#clip-path-83);}.cls-50{stroke:#979797;stroke-miterlimit:10;stroke-width:0.37px;}.cls-51{clip-path:url(#clip-path-86);}.cls-52{clip-path:url(#clip-path-88);}.cls-53{clip-path:url(#clip-path-90);}.cls-54{clip-path:url(#clip-path-92);}.cls-55{clip-path:url(#clip-path-94);}.cls-56{clip-path:url(#clip-path-95);}.cls-57{clip-path:url(#clip-path-96);}.cls-58{clip-path:url(#clip-path-97);}.cls-59{mix-blend-mode:multiply;}.cls-60{clip-path:url(#clip-path-100);}</style><clipPath id="clip-path"><path class="cls-1" d="M508.91,154.2c-7.73,1.36-13.25,9.65-11.49,17.29a14.71,14.71,0,0,0,16.91,11.71c7.93-1,13.79-9.45,12.1-17.25C525.2,158,516.76,152.31,508.91,154.2Zm-109.22.06c-6.44,1.45-11.59,7.64-11.31,14.32a14.51,14.51,0,0,0,9.21,13.79,14.78,14.78,0,1,0,2.1-28.11Zm49.59-32H470.1a284.6,284.6,0,0,1,192.69,85,87.93,87.93,0,0,0-7.31,5.27H484.76q-9.7,26-19.47,52a12.57,12.57,0,0,0-.57,4.26c.11,70-.08,140,.09,210-4.34.82-6.76,5-10.13,7.45V267.93c.05-3.23-1.49-6.13-2.49-9.11-5.56-15.46-11.19-30.9-16.74-46.36h-184A284.54,284.54,0,0,1,449.28,122.22Z"/></clipPath><clipPath id="clip-path-2"><rect class="cls-1" x="-877" y="-861.72" width="2691" height="2684.72"/></clipPath><clipPath id="clip-path-3"><path class="cls-1" d="M454.66,492.83c3.35-3,6.68-6.08,10.08-9.1v92.2c.12,10.14-.24,20.3.16,30.41,5.66,10.74,12,21.13,17.91,31.72q13.95,24.39,27.89,48.77l1.61.34-.13.49a16.79,16.79,0,0,0-4.53.24,288.23,288.23,0,0,1-90.54.89c-3.31-.43-6.62-1.44-9.94-1.13a2.26,2.26,0,0,0-.14-.49l1.66-.31c15.28-26.8,30.8-53.51,45.84-80.44.45-13.72.05-27.49.19-41.23Z"/></clipPath><clipPath id="clip-path-5"><path class="cls-1" d="M399.69,154.26a14.79,14.79,0,1,1-2.1,28.11,14.49,14.49,0,0,1-9.17-13.78C388.09,161.9,393.25,155.71,399.69,154.26Z"/></clipPath><clipPath id="clip-path-7"><path class="cls-1" d="M508.91,154.2c7.81-1.89,16.29,3.83,17.52,11.75,1.66,7.8-4.14,16.21-12.1,17.25a14.75,14.75,0,0,1-5.42-29Z"/></clipPath><clipPath id="clip-path-9"><path class="cls-1" d="M655.48,212.47a85.56,85.56,0,0,1,7.31-5.26,284.33,284.33,0,0,1,71.59,124,72.58,72.58,0,0,1-48,6.85c-24.68-4.77-45.92-23.69-53.61-47.61a72.16,72.16,0,0,1-.43-43.62A71.37,71.37,0,0,1,655.48,212.47Z"/></clipPath><clipPath id="clip-path-11"><path class="cls-1" d="M354.13,212.47h47.09a29.21,29.21,0,0,1-19.34,45.91c-.45,1.29-.66,3.57-2.54,3.42-2,.33-2.32-1.81-2.89-3.16a29.29,29.29,0,0,1-26-18.95A29.62,29.62,0,0,1,354.13,212.47Z"/></clipPath><clipPath id="clip-path-13"><path class="cls-1" d="M178.93,357.9a283.74,283.74,0,0,1,58.46-129.23A71.6,71.6,0,1,1,178.93,357.9Z"/></clipPath><clipPath id="clip-path-15"><path class="cls-1" d="M378.84,278.17c1.22-1.53,4.32-.77,4.2,1.41.54,6.88,1.18,13.77,1.46,20.66a2.28,2.28,0,0,1-3.69,1.81c-1.2-.71-1-2.23-1.16-3.41-.36-6.37-1-12.74-1.33-19.12C378.48,279.18,378.71,278.5,378.84,278.17Z"/></clipPath><clipPath id="clip-path-17"><path class="cls-1" d="M482.37,308.91c2.22-1.34,4.85,1.85,2.93,3.65-5.35,4.4-10.93,8.52-16.44,12.71-1.4,1.38-4.27.2-3.88-1.88-.22-1.52,1.4-2.2,2.33-3.05C472.39,316.61,477.24,312.56,482.37,308.91Z"/></clipPath><clipPath id="clip-path-19"><path class="cls-1" d="M643.53,315.34a2.37,2.37,0,0,1,2.18-.35,2.34,2.34,0,0,1,1.5,1.63c.46,2.09-1.61,3.19-2.85,4.47-4.56,4-8.86,8.24-13.53,12.06-2.59,1.51-4.8-2.59-2.48-4.15C633.39,324.42,638.4,319.8,643.53,315.34Z"/></clipPath><clipPath id="clip-path-21"><path class="cls-1" d="M387.57,339.76a43.69,43.69,0,0,1,28.61,9.66A44.3,44.3,0,1,1,382.74,340,42,42,0,0,0,387.57,339.76Z"/></clipPath><clipPath id="clip-path-23"><path class="cls-1" d="M572.39,329.34a2.4,2.4,0,0,1,3.39,1.16c3.05,5.55,6,11.19,9,16.75.83,1.33,1.24,3.37-.24,4.38-1.11.25-2.69.5-3.31-.77-3.31-5.85-6.38-11.83-9.56-17.75C570.84,332,571,329.92,572.39,329.34Z"/></clipPath><clipPath id="clip-path-25"><path class="cls-1" d="M450.08,333.7c2.62-1.4,4.79,2.48,2.48,4.14-5.46,4.19-10.83,8.51-16.41,12.54-1.83,1.32-4.31-.83-3.54-2.89a14.85,14.85,0,0,1,3.31-3C440.7,340.93,445.27,337.14,450.08,333.7Z"/></clipPath><clipPath id="clip-path-27"><path class="cls-1" d="M613.12,342.87c1.46-1.66,4.37,0,3.88,2.11.1,1.15-1.11,1.65-1.73,2.48-4.69,4.14-9.24,8.44-13.94,12.55-1.12,1.35-3.87.82-4-1-.57-1.84,1.26-2.88,2.34-4C604.18,351,608.53,346.78,613.12,342.87Z"/></clipPath><clipPath id="clip-path-29"><path class="cls-1" d="M270.14,358.33c2.21-1.42,4,1.12,4.1,3.12,1.46,5.8,3.17,11.6,4.58,17.39a2.32,2.32,0,0,1-3,2.84c-1.49-.25-1.65-1.93-2-3.09-1.48-5.71-3.07-11.41-4.56-17.12A2.47,2.47,0,0,1,270.14,358.33Z"/></clipPath><clipPath id="clip-path-31"><path class="cls-1" d="M591.6,365.35a2.47,2.47,0,0,1,3.57,1.37c3.11,6,6.5,11.85,9.46,17.92,1.2,2.43-2.49,4.42-4,2.39-3.4-5.79-6.38-11.88-9.63-17.78C590.19,368.05,590.15,366.07,591.6,365.35Z"/></clipPath><clipPath id="clip-path-33"><path class="cls-1" d="M583.24,370c2.18-1.82,5,1.91,2.94,3.67-4.85,4.56-9.85,8.93-14.75,13.43-1.1,1.4-4.21,1.34-4.35-.75-.62-2,1.41-3,2.56-4.22C574.22,378.16,578.54,373.85,583.24,370Z"/></clipPath><clipPath id="clip-path-35"><path class="cls-1" d="M557.61,389.16a44.35,44.35,0,1,1-41.36,47.9l-.1-6.77a45.24,45.24,0,0,1,9.05-23.84A44.39,44.39,0,0,1,557.61,389.16Z"/></clipPath><clipPath id="clip-path-37"><path class="cls-1" d="M280.11,396.37A2.43,2.43,0,0,1,284,398c1.73,6.3,3.53,12.59,5,18.94.78,2.65-3.56,3.94-4.45,1.42-1.76-5.79-3.14-11.71-4.8-17.54C279.5,399.37,278.7,397.46,280.11,396.37Z"/></clipPath><clipPath id="clip-path-39"><path class="cls-1" d="M610.57,401.46a2.59,2.59,0,0,1,3.89,1.45c3.08,5.84,6.3,11.59,9.28,17.49a2.38,2.38,0,0,1-2.7,3.43c-1.16-.18-1.58-1.32-2.09-2.19-2.94-5.58-6-11.11-8.9-16.69A2.57,2.57,0,0,1,610.57,401.46Z"/></clipPath><clipPath id="clip-path-41"><path class="cls-1" d="M227.43,434.2a29.78,29.78,0,0,1,17.74,1,28.73,28.73,0,1,1-17.76-.93Z"/></clipPath><clipPath id="clip-path-43"><path class="cls-1" d="M290.08,434.5c1.25-1.29,4-.59,4.14,1.38,1.65,6.14,3.31,12.27,4.92,18.42.69,1.65-.83,3.75-2.62,3.25-1.7-.06-2-2-2.36-3.31-1.49-6.09-3.49-12.06-4.69-18.22C289.59,435.68,289.89,434.9,290.08,434.5Z"/></clipPath><clipPath id="clip-path-45"><path class="cls-1" d="M630.52,437.09c2.39-.66,3.31,1.94,4.2,3.59,2.72,5.45,5.95,10.66,8.47,16.19.94,2.49-2.93,4.19-4.22,2-3.31-6-6.46-12-9.64-18a2.47,2.47,0,0,1,1.19-3.79Z"/></clipPath><clipPath id="clip-path-47"><path class="cls-1" d="M492.85,451.86c1.51-.56,3.73.54,3.35,2.36.12,1.2-1.07,1.81-1.73,2.6-4.84,4.27-9.51,8.74-14.41,12.94-2.24,2-5.17-1.87-3-3.68C482.28,461.32,487.42,456.42,492.85,451.86Z"/></clipPath><clipPath id="clip-path-49"><path class="cls-1" d="M300.94,471.93a2.44,2.44,0,0,1,3.35,1.7c1.66,6.52,3.75,13,5.09,19.57.46,2.64-4.08,3.24-4.55.73-1.8-6.32-3.48-12.69-5.13-19A2.48,2.48,0,0,1,300.94,471.93Z"/></clipPath><clipPath id="clip-path-51"><path class="cls-1" d="M648.78,473.7a2.46,2.46,0,0,1,2.28-.64,2.5,2.5,0,0,1,1.78,1.57c3.12,5.92,6.39,11.76,9.42,17.72,1.52,2.49-2.49,5-4,2.56-3.18-5.66-6.13-11.46-9.25-17.15C648.28,476.6,647.58,474.79,648.78,473.7Z"/></clipPath><clipPath id="clip-path-53"><path class="cls-1" d="M454.66,486.28c3.37-2.49,5.8-6.69,10.13-7.46,1,1.57,1.85,3.7-.06,5-3.41,3-6.73,6-10.09,9.11-1.91,1.59-3.49,3.73-5.79,4.7-2.26.55-3.63-2.48-2.08-4C449.25,491,452.07,488.73,454.66,486.28Z"/></clipPath><clipPath id="clip-path-55"><path class="cls-1" d="M683.55,492.81a72.71,72.71,0,0,1,46.37,4.83,285.58,285.58,0,0,1-77.2,119,71.61,71.61,0,0,1,30.86-123.82Z"/></clipPath><clipPath id="clip-path-57"><path class="cls-1" d="M432.45,506.61c2.38-1.25,4.64,2.49,2.49,4.08-4.91,4.47-9.81,8.95-14.77,13.36-1.19,1.52-4.29,1-4.24-1.18-.37-1.81,1.5-2.75,2.55-3.85C423.2,515,427.58,510.48,432.45,506.61Z"/></clipPath><clipPath id="clip-path-59"><path class="cls-1" d="M310.86,510a2.38,2.38,0,0,1,2.12-.23,2.4,2.4,0,0,1,1.46,1.57c1.72,6.37,3.47,12.74,5.11,19.13.83,2.48-3.08,4.24-4.33,1.87-1.87-5.76-3.13-11.69-4.85-17.51C310,513.28,309.07,511.12,310.86,510Z"/></clipPath><clipPath id="clip-path-61"><path class="cls-1" d="M401.55,534.44c1.89-2.1,5.55,1.19,3.45,3.25-4.48,4.43-9.36,8.44-13.92,12.79-1.15.88-2.68,2.68-4.21,1.51-1.51-.46-1-2.17-1.17-3.31C391.07,544,396.19,539.09,401.55,534.44Z"/></clipPath><clipPath id="clip-path-63"><path class="cls-1" d="M527.13,546.75a29,29,0,1,1-24.25,32.64,29.8,29.8,0,0,1,1.52-14.13A28.9,28.9,0,0,1,527.13,546.75Z"/></clipPath><clipPath id="clip-path-65"><path class="cls-1" d="M328.52,563.73a71.71,71.71,0,0,1,34.7,111.48A285.24,285.24,0,0,1,245.08,594.5a71.83,71.83,0,0,1,78-32.3C325,563.73,328.52,563.73,328.52,563.73Z"/></clipPath><clipPath id="clip-path-67"><path class="cls-1" d="M371.54,561.63c2.31-1.9,5.39,1.92,3,3.73-5,4.67-10.09,9.3-15.25,13.81-2.28,2.08-5.36-1.85-3-3.69C361.29,570.82,366.37,566.17,371.54,561.63Z"/></clipPath><clipPath id="clip-path-69"><path class="cls-1" d="M531.34,667.53a44.64,44.64,0,0,1,64.91-10.38,282.73,282.73,0,0,1-71.55,27.32A45.14,45.14,0,0,1,531.34,667.53Z"/></clipPath><clipPath id="clip-path-71"><path class="cls-1" d="M371.54,561.63c-5.17,4.54-10.25,9.19-15.31,13.85-2.33,1.84.75,5.8,3,3.69q7.74-6.76,15.25-13.81C376.93,563.54,373.85,559.73,371.54,561.63Zm30-27.19c-5.36,4.65-10.48,9.58-15.85,14.22.18,1.16-.34,2.87,1.17,3.31,1.53,1.17,3.06-.63,4.21-1.52,4.56-4.34,9.44-8.36,13.92-12.79C407.1,535.63,403.44,532.34,401.55,534.44ZM310.86,510c-1.79,1.08-.89,3.24-.49,4.83,1.72,5.8,3,11.75,4.85,17.51,1.25,2.37,5.16.64,4.33-1.87-1.65-6.39-3.39-12.76-5.11-19.13a2.4,2.4,0,0,0-1.46-1.57A2.38,2.38,0,0,0,310.86,510Zm121.59-3.43c-4.87,3.87-9.24,8.36-14,12.42-1.06,1.1-2.93,2-2.55,3.85-.05,2.15,3,2.7,4.23,1.18,5-4.41,9.87-8.89,14.77-13.36C437.09,509.13,434.83,505.36,432.45,506.61ZM300.94,471.93a2.47,2.47,0,0,0-1.24,2.94c1.65,6.37,3.31,12.74,5.13,19.05.47,2.48,5,1.9,4.55-.74-1.34-6.62-3.39-13.05-5.09-19.56A2.44,2.44,0,0,0,300.94,471.93ZM290.08,434.5c-.17.4-.49,1.18-.65,1.57,1.2,6.15,3.2,12.12,4.69,18.22.39,1.27.66,3.21,2.36,3.31,1.83.5,3.31-1.61,2.61-3.25-1.57-6.15-3.25-12.28-4.91-18.42A2.46,2.46,0,0,0,290.08,434.5Zm-62.65-.3a29.16,29.16,0,1,0,17.74,1A29.78,29.78,0,0,0,227.43,434.2Zm52.64-37.83c-1.4,1.09-.61,3-.34,4.44,1.65,5.8,3,11.74,4.8,17.54.89,2.49,5.22,1.23,4.45-1.42-1.5-6.35-3.32-12.64-5-18.94a2.43,2.43,0,0,0-3.84-1.62Zm-9.93-38a2.47,2.47,0,0,0-.91,3.14c1.49,5.71,3.08,11.41,4.56,17.12.41,1.16.56,2.84,2,3.09a2.32,2.32,0,0,0,3-2.84c-1.41-5.79-3.12-11.59-4.58-17.39C274.15,359.45,272.35,356.91,270.14,358.33Zm180-24.63c-4.82,3.44-9.39,7.23-14.14,10.76a14.87,14.87,0,0,0-3.31,3c-.77,2,1.71,4.21,3.53,2.89,5.59-4,11-8.35,16.42-12.54,2.26-1.61.09-5.53-2.53-4.13Zm-68.73-13.55c.23,6.63,1,13.25,1.36,19.88a44.28,44.28,0,1,0,33.44,9.36,43.73,43.73,0,0,0-28.59-9.63c-.61-6.62-.88-13.25-1.56-19.8C385.94,317.26,381.21,317.47,381.38,320.15Zm-2.54-42-.52,1.35c.31,6.38,1,12.75,1.33,19.12.17,1.18,0,2.7,1.16,3.41a2.29,2.29,0,0,0,3.69-1.81c-.28-6.89-.92-13.78-1.46-20.66C383.16,277.4,380.06,276.64,378.84,278.17Zm-141.42-49.5c4.5-5.56,9.15-11,14.07-16.21q51.35.06,102.67,0a29.15,29.15,0,0,0,22.32,46.16c.57,1.35.93,3.49,2.9,3.16,1.87.15,2.08-2.13,2.53-3.42a29.2,29.2,0,0,0,19.34-45.9h34.2c5.55,15.46,11.18,30.9,16.74,46.36,1,3,2.58,5.88,2.49,9.11V486.26c-2.61,2.48-5.43,4.69-7.93,7.26-1.55,1.5-.17,4.55,2.08,4,2.34-1,3.92-3.11,5.8-4.7V565.2c-.14,13.74.26,27.51-.19,41.23-15,26.93-30.56,53.63-45.84,80.44l-1.66.3a297.3,297.3,0,0,1-43.75-11.94,71.72,71.72,0,0,0-34.7-111.48c-1.37-4.75-2.49-9.58-3.9-14.31-.47-2.53-4.45-2.32-4.71.23.67,4.27,2.21,8.36,3.19,12.57a71.83,71.83,0,0,0-78,32.29A284.63,284.63,0,0,1,197.15,518c-21.34-50.14-27.51-106.46-18.22-160.1A72.19,72.19,0,0,0,222,368.77a71.57,71.57,0,0,0,15.43-140.1Z"/></clipPath><clipPath id="clip-path-73"><path class="cls-1" d="M527.13,546.75a28.89,28.89,0,0,0-22.73,18.54,29.82,29.82,0,0,0-1.52,14.14,28.92,28.92,0,0,0,14.76,21.37,29,29,0,1,0,9.49-54ZM648.78,473.7c-1.17,1.09-.5,2.87.21,4.06,3.12,5.69,6.07,11.49,9.25,17.15,1.53,2.4,5.54-.07,4-2.56-3-6-6.3-11.8-9.42-17.72a2.5,2.5,0,0,0-1.78-1.57A2.46,2.46,0,0,0,648.78,473.7ZM492.85,451.86c-5.43,4.56-10.57,9.46-15.82,14.22-2.14,1.81.83,5.65,3,3.68,4.9-4.2,9.57-8.67,14.41-12.94.66-.83,1.85-1.4,1.73-2.6C496.58,452.4,494.4,451.3,492.85,451.86Zm137.66-14.78a2.48,2.48,0,0,0-1.19,3.79c3.18,6,6.36,12,9.64,18,1.3,2.19,5.16.46,4.23-2-2.53-5.53-5.8-10.77-8.47-16.2-.9-1.63-1.81-4.23-4.2-3.57Zm-20-35.61a2.58,2.58,0,0,0-.48,3.45c2.93,5.58,6,11.11,8.9,16.69.5.87.92,2,2.08,2.18a2.37,2.37,0,0,0,2.7-3.42c-3-5.87-6.19-11.66-9.3-17.46a2.59,2.59,0,0,0-3.89-1.45Zm-85.36,5a45.12,45.12,0,0,0-9.07,23.88c-2.82,3.36-6.58,5.8-9.49,9.11-.83,2,1.33,4.38,3.31,3.17,2.29-1.61,4.14-3.69,6.28-5.52a44.22,44.22,0,0,0,17.45,31.73,43.35,43.35,0,0,0,27,8.87,44.31,44.31,0,1,0-35.43-71.21Zm58-36.43c-4.7,3.84-9,8.15-13.6,12.13-1.15,1.19-3.18,2.25-2.56,4.22.14,2.09,3.25,2.15,4.35.75,4.9-4.5,9.94-8.87,14.75-13.43,2.05-1.76-.75-5.49-2.93-3.67Zm8.36-4.66c-1.45.72-1.41,2.7-.59,3.9,3.25,5.9,6.23,12,9.63,17.78,1.52,2,5.19,0,4-2.39-3-6.07-6.34-11.93-9.46-17.92a2.48,2.48,0,0,0-3.56-1.37Zm21.53-22.48c-4.59,3.91-8.94,8.12-13.48,12.1-1.08,1.11-2.91,2.15-2.34,4,.16,1.85,2.91,2.36,4,1,4.7-4.14,9.25-8.4,13.94-12.54.62-.76,1.83-1.3,1.73-2.49C617.49,342.91,614.58,341.24,613.12,342.87Zm-40.73-13.53c-1.4.58-1.55,2.65-.68,3.77,3.17,5.92,6.25,11.9,9.55,17.75.59,1.27,2.17,1,3.31.77,1.48-1,1-3.05.24-4.38-3-5.56-5.95-11.2-9-16.75a2.39,2.39,0,0,0-3.42-1.16Zm71.14-14c-5.13,4.46-10.14,9.11-15.15,13.68-2.35,1.54-.14,5.64,2.49,4.14,4.67-3.82,9-8.1,13.53-12.05,1.23-1.28,3.31-2.38,2.84-4.48a2.34,2.34,0,0,0-3.71-1.29Zm-161.16-6.43c-5.13,3.65-10,7.7-15.06,11.43-.93.83-2.55,1.53-2.33,3.05-.39,2.08,2.49,3.26,3.88,1.88,5.51-4.19,11.09-8.28,16.44-12.71C487.22,310.76,484.59,307.57,482.37,308.91Zm29.64-50a29.62,29.62,0,0,0,3.18,24.77c-5.83,4.39-11.72,8.75-17.38,13.38-2,2,1.35,5.38,3.37,3.36,5.69-4.28,11.32-8.65,17-13C526.33,296.75,541,299.7,552,294a5.29,5.29,0,0,0,.64,3.5c2.87,5.39,5.8,10.76,8.63,16.16.57,1,1.2,2.41,2.66,2.13,2,.33,3-2.17,2-3.67-3-5.79-6.13-11.42-9.11-17.16a3,3,0,0,0-2.77-1.92c13.2-7.06,18.41-25.09,11.42-38.26A29.06,29.06,0,0,0,512,258.91Zm-27.25-46.44H655.48a71.37,71.37,0,0,0-23.11,34.31,72.16,72.16,0,0,0,.43,43.62c7.69,23.92,28.93,42.84,53.61,47.61a72.58,72.58,0,0,0,48-6.85,293,293,0,0,1,10.08,65.53v20.7a290.15,290.15,0,0,1-14.57,80.22,72.64,72.64,0,0,0-46.37-4.83A71.6,71.6,0,0,0,634,591.15a72.37,72.37,0,0,0,18.67,25.44,286.62,286.62,0,0,1-56.4,40.56,44.64,44.64,0,0,0-64.91,10.38,45.11,45.11,0,0,0-6.62,16.94c-4.14,1-8.28,1.74-12.42,2.68l-1.62-.33q-14-24.37-27.87-48.76c-5.92-10.57-12.21-21-17.86-31.67-.4-10.11,0-20.27-.16-30.4V483.78c1.92-1.26,1-3.4.07-5-.17-70,0-140-.09-210a12.57,12.57,0,0,1,.57-4.26Q475,238.48,484.76,212.47Z"/></clipPath><clipPath id="clip-path-75"><circle class="cls-1" cx="539.12" cy="267.12" r="29.81" transform="matrix(0.99, -0.16, 0.16, 0.99, -35.83, 89.81)"/></clipPath><clipPath id="clip-path-77"><path class="cls-2" d="M243.08,210.91Q301,301.15,470.29,301.15T661.45,196.53q-82.17-89.8-205.63-89.81T243.08,210.91Z"/></clipPath><clipPath id="clip-path-79"><path class="cls-2" d="M288.09,198q86.48,24.65,138.72,24.64c15.21,0,21.51-10.3,27.53-9.79,11.69,1,8.67,9.79,40.76,9.79q29.37,0,136.1-24.64-40.1-15.61-151.83-15.61H404Q341.55,182.36,288.09,198Z"/></clipPath><clipPath id="clip-path-81"><rect class="cls-1" x="286.25" y="159.48" width="346.8" height="65.3"/></clipPath><clipPath id="clip-path-82"><rect class="cls-1" x="288.09" y="182.36" width="343.11" height="40.58"/></clipPath><clipPath id="clip-path-83"><path class="cls-2" d="M525.12,222.94a30.65,30.65,0,1,1,30.66-30.65A30.66,30.66,0,0,1,525.12,222.94Zm-146.7,0a30.65,30.65,0,1,1,30.67-30.65A30.66,30.66,0,0,1,378.42,222.94Z"/></clipPath><clipPath id="clip-path-86"><path class="cls-2" d="M402.09,174.24l29.15,30.25V174.24Z"/></clipPath><clipPath id="clip-path-88"><path class="cls-2" d="M499.49,174.24l-29.15,30.25V174.24Z"/></clipPath><clipPath id="clip-path-90"><ellipse class="cls-1" cx="259.12" cy="208.52" rx="24.83" ry="24.79"/></clipPath><clipPath id="clip-path-92"><rect class="cls-1" x="9.35" y="116.05" width="278.74" height="95.82"/></clipPath><clipPath id="clip-path-94"><rect class="cls-1" x="9.18" y="114.1" width="278.91" height="97.77"/></clipPath><clipPath id="clip-path-95"><path class="cls-2" d="M288.09,211.87S183.22,54.81,9.35,142.84c0,0,42.43,36.25,24.84,62.15,0,0,142.13-88.95,253.9,6.88"/></clipPath><clipPath id="clip-path-96"><rect class="cls-1" x="9.18" y="115.95" width="278.91" height="95.92"/></clipPath><clipPath id="clip-path-97"><path class="cls-2" d="M278.16,211.49S151.24,241.35,97.73,187.85c0,0,24.54,69.26.69,75.48,0,0,84.71,9.74,179.74-51.84"/></clipPath><clipPath id="clip-path-100"><rect class="cls-1" x="-451.99" y="692.22" width="684.37" height="521.67"/></clipPath></defs><title>Metriquita</title><g class="cls-3"><g id="Capa_1" data-name="Capa 1"><g class="cls-4"><g class="cls-5"><rect x="249.61" y="120.38" width="415.02" height="367.73"/></g></g><g class="cls-6"><g class="cls-5"><rect x="405.19" y="481.88" width="108.97" height="211.9"/></g></g><g class="cls-7"><g class="cls-5"><rect class="cls-8" x="386.56" y="152.01" width="33.19" height="33.27"/></g></g><g class="cls-9"><g class="cls-5"><rect class="cls-8" x="495.25" y="151.99" width="33.3" height="33.31"/></g></g><g class="cls-10"><g class="cls-5"><rect x="627.36" y="205.36" width="108.87" height="135.92"/></g></g><g class="cls-11"><g class="cls-5"><rect x="346.84" y="210.63" width="61.65" height="53.05"/></g></g><g class="cls-12"><g class="cls-5"><rect x="177.09" y="226.82" width="113.62" height="143.95"/></g></g><g class="cls-13"><g class="cls-5"><rect class="cls-8" x="376.47" y="275.53" width="9.89" height="28.88"/></g></g><g class="cls-14"><g class="cls-5"><rect class="cls-8" x="463.1" y="306.74" width="24.71" height="20.97"/></g></g><g class="cls-15"><g class="cls-5"><rect class="cls-8" x="625.53" y="313.02" width="23.59" height="22.3"/></g></g><g class="cls-16"><g class="cls-5"><rect x="342.22" y="337.9" width="92.37" height="92.45"/></g></g><g class="cls-17"><g class="cls-5"><rect class="cls-8" x="569.31" y="327.18" width="18.06" height="26.5"/></g></g><g class="cls-18"><g class="cls-5"><rect class="cls-8" x="430.62" y="331.56" width="24.76" height="21.07"/></g></g><g class="cls-19"><g class="cls-5"><rect class="cls-8" x="595.35" y="340.35" width="23.55" height="22.26"/></g></g><g class="cls-20"><g class="cls-5"><rect class="cls-8" x="267.15" y="356.07" width="13.61" height="27.58"/></g></g><g class="cls-21"><g class="cls-5"><rect class="cls-8" x="588.6" y="363.18" width="18.11" height="26.53"/></g></g><g class="cls-22"><g class="cls-5"><rect class="cls-8" x="565.12" y="367.67" width="23.61" height="22.23"/></g></g><g class="cls-23"><g class="cls-5"><rect x="514.31" y="387.22" width="92.25" height="92.32"/></g></g><g class="cls-24"><g class="cls-5"><rect class="cls-8" x="277.45" y="394.04" width="13.49" height="27.52"/></g></g><g class="cls-25"><g class="cls-5"><rect class="cls-8" x="607.74" y="399.21" width="18.12" height="26.55"/></g></g><g class="cls-26"><g class="cls-5"><rect x="204.25" y="431.46" width="61.43" height="61.58"/></g></g><g class="cls-27"><g class="cls-5"><rect class="cls-8" x="287.63" y="432" width="13.52" height="27.47"/></g></g><g class="cls-28"><g class="cls-5"><rect class="cls-8" x="627.01" y="435.14" width="18.17" height="26.58"/></g></g><g class="cls-29"><g class="cls-5"><rect class="cls-8" x="474.44" y="449.87" width="23.65" height="22.28"/></g></g><g class="cls-30"><g class="cls-5"><rect class="cls-8" x="297.74" y="469.93" width="13.52" height="27.45"/></g></g><g class="cls-31"><g class="cls-5"><rect class="cls-8" x="646.29" y="471.15" width="18.15" height="26.59"/></g></g><g class="cls-32"><g class="cls-5"><rect class="cls-8" x="444.26" y="476.98" width="23.44" height="22.53"/></g></g><g class="cls-33"><g class="cls-5"><rect x="626.24" y="489.17" width="105.53" height="129.3"/></g></g><g class="cls-34"><g class="cls-5"><rect class="cls-8" x="414.04" y="504.51" width="23.61" height="22.24"/></g></g><g class="cls-35"><g class="cls-5"><rect class="cls-8" x="307.94" y="507.82" width="13.57" height="27.53"/></g></g><g class="cls-36"><g class="cls-5"><rect class="cls-8" x="383.86" y="531.92" width="23.61" height="22.3"/></g></g><g class="cls-37"><g class="cls-5"><rect x="500.77" y="544.53" width="61.65" height="61.69"/></g></g><g class="cls-38"><g class="cls-5"><rect x="243.23" y="558.36" width="136.38" height="118.69"/></g></g><g class="cls-39"><g class="cls-5"><rect class="cls-8" x="353.55" y="559.27" width="23.68" height="22.34"/></g></g><g class="cls-40"><g class="cls-5"><rect x="522.85" y="645.68" width="75.24" height="40.64"/></g></g><g class="cls-41"><g class="cls-5"><rect class="cls-42" x="172.89" y="210.61" width="283.63" height="478.41"/></g></g><g class="cls-43"><g class="cls-5"><rect class="cls-42" x="462.91" y="210.63" width="283.39" height="478.37"/></g></g><g class="cls-44"><g class="cls-5"><rect x="507.46" y="235.47" width="63.31" height="63.31"/></g></g><g class="cls-45"><g class="cls-5"><rect x="241.24" y="104.88" width="422.06" height="198.12"/></g></g><g class="cls-46"><g class="cls-5"><g class="cls-3"><g class="cls-47"><g class="cls-48"><rect class="cls-8" x="286.25" y="180.51" width="346.8" height="43.94"/></g><g class="cls-49"><g class="cls-48"><rect x="345.92" y="159.81" width="211.71" height="64.98"/></g></g><g class="cls-48"><path class="cls-50" d="M525.12,222.94a30.65,30.65,0,1,1,30.66-30.65A30.66,30.66,0,0,1,525.12,222.94Zm-146.7,0a30.65,30.65,0,1,1,30.67-30.65A30.66,30.66,0,0,1,378.42,222.94Z"/></g></g></g></g></g><g class="cls-51"><g class="cls-5"><rect x="400.25" y="172.39" width="32.84" height="33.94"/></g></g><g class="cls-52"><g class="cls-5"><rect x="468.5" y="172.39" width="32.84" height="33.94"/></g></g><g class="cls-53"><g class="cls-5"><rect x="232.45" y="181.88" width="53.35" height="53.28"/></g></g><g class="cls-54"><g class="cls-5"><g class="cls-3"><g class="cls-55"><g class="cls-56"><g class="cls-57"><rect x="7.51" y="114.2" width="282.43" height="99.51"/></g></g></g></g></g></g><g class="cls-58"><g class="cls-5"><rect x="95.89" y="186.01" width="184.11" height="79.73"/></g></g></g></g></svg>