<svg width="370" height="62" viewBox="0 0 370 62" fill="none" xmlns="http://www.w3.org/2000/svg">
<path d="M19.9024 27.66C19.3824 27.66 18.9624 27.52 18.6424 27.24C18.3224 26.92 18.1624 26.52 18.1624 26.04C18.1624 25.44 18.3824 24.92 18.8224 24.48C19.2624 24.04 19.8024 23.82 20.4424 23.82C21.0024 23.82 21.4424 23.98 21.7624 24.3C22.0824 24.62 22.2424 25.02 22.2424 25.5C22.2424 26.1 22.0024 26.62 21.5224 27.06C21.0824 27.46 20.5424 27.66 19.9024 27.66ZM2.98236 55.08C2.58236 55.08 2.04236 54.86 1.36236 54.42C0.642358 53.98 0.202358 53.56 0.0423584 53.16C0.562359 52.64 1.38236 51.68 2.50236 50.28C3.62236 48.88 4.88236 47.26 6.28236 45.42C7.68236 43.62 9.06236 41.78 10.4224 39.9C11.8224 38.02 13.0624 36.32 14.1424 34.8C15.2624 33.24 16.0424 32.08 16.4824 31.32C16.8024 30.84 17.1024 30.6 17.3824 30.6C17.7024 30.6 17.8624 30.78 17.8624 31.14C17.8624 31.26 17.8024 31.42 17.6824 31.62C17.6424 31.66 17.3824 32.12 16.9024 33C16.4224 33.88 15.8024 35.02 15.0424 36.42C14.2824 37.82 13.4224 39.34 12.4624 40.98C11.5424 42.66 10.5824 44.32 9.58236 45.96C8.62236 47.6 7.70236 49.1 6.82236 50.46C5.94236 51.86 5.16236 52.98 4.48236 53.82C3.80236 54.66 3.30236 55.08 2.98236 55.08Z" fill="white"/>
<path d="M55.218 38.94C53.898 38.94 52.918 38.58 52.278 37.86C51.678 37.14 51.378 36.16 51.378 34.92C51.378 33.72 51.578 32.42 51.978 31.02C52.418 29.62 52.938 28.24 53.538 26.88C54.138 25.52 54.698 24.32 55.218 23.28H51.558C49.598 23.28 47.498 23.22 45.258 23.1C43.058 22.98 40.838 22.74 38.598 22.38C36.398 22.02 34.298 21.52 32.298 20.88C30.338 20.2 28.598 19.32 27.078 18.24C26.598 17.88 26.138 17.46 25.698 16.98C25.298 16.46 25.098 15.88 25.098 15.24C25.098 13.32 25.818 11.74 27.258 10.5C28.738 9.26 30.718 8.3 33.198 7.62C35.678 6.94 38.478 6.46 41.598 6.18C44.718 5.9 47.958 5.76 51.318 5.76C53.678 5.76 56.038 5.84 58.398 6C60.798 6.16 63.178 6.34 65.538 6.54C66.258 5.66 66.898 4.98 67.458 4.5C68.018 3.98 68.658 3.62 69.378 3.42C70.138 3.18 71.098 3.06 72.258 3.06C72.578 3.06 72.878 3.1 73.158 3.18C73.478 3.26 73.658 3.48 73.698 3.84C73.178 4.36 72.698 4.9 72.258 5.46C71.818 5.98 71.358 6.52 70.878 7.08C72.678 7.2 74.358 7.3 75.918 7.38C77.518 7.42 79.218 7.44 81.018 7.44C81.898 7.44 82.938 7.42 84.138 7.38C85.378 7.3 86.438 7.1 87.318 6.78C87.718 6.62 88.078 6.54 88.398 6.54C88.638 6.54 88.858 6.62 89.058 6.78C89.258 6.9 89.378 7.14 89.418 7.5C89.458 7.86 89.098 8.16 88.338 8.4C87.618 8.6 86.718 8.74 85.638 8.82C84.558 8.9 83.518 8.96 82.518 9C81.558 9 80.858 9 80.418 9C78.538 9 76.738 8.98 75.018 8.94C73.338 8.9 71.538 8.8 69.618 8.64C69.138 9.04 68.438 9.74 67.518 10.74C66.638 11.74 65.678 12.88 64.638 14.16C63.638 15.44 62.678 16.74 61.758 18.06C60.838 19.34 60.078 20.48 59.478 21.48C62.078 21.32 64.678 21.12 67.278 20.88C69.878 20.64 72.498 20.36 75.138 20.04H75.198C75.438 20.04 75.718 20.12 76.038 20.28C76.398 20.44 76.458 20.6 76.218 20.76C75.818 21 75.238 21.22 74.478 21.42C73.718 21.58 72.958 21.72 72.198 21.84C71.438 21.92 70.858 22 70.458 22.08C68.738 22.32 66.858 22.54 64.818 22.74C62.778 22.94 60.718 23.08 58.638 23.16C58.078 24.2 57.438 25.44 56.718 26.88C56.038 28.32 55.438 29.78 54.918 31.26C54.398 32.7 54.138 34.02 54.138 35.22C54.138 35.98 54.298 36.52 54.618 36.84C54.938 37.2 55.338 37.38 55.818 37.38C56.338 37.38 56.878 37.24 57.438 36.96C58.038 36.68 58.558 36.36 58.998 36C59.078 35.92 59.198 35.88 59.358 35.88C59.478 35.88 59.558 35.94 59.598 36.06C59.678 36.18 59.658 36.34 59.538 36.54C59.298 36.98 58.898 37.38 58.338 37.74C57.778 38.1 57.198 38.38 56.598 38.58C55.998 38.82 55.538 38.94 55.218 38.94ZM54.738 21.66L55.938 21.6C56.658 20.24 57.518 18.76 58.518 17.16C59.558 15.52 60.618 13.92 61.698 12.36C62.778 10.76 63.758 9.34 64.638 8.1C60.918 7.86 57.178 7.74 53.418 7.74C52.618 7.74 51.478 7.78 49.998 7.86C48.518 7.9 46.858 8.02 45.018 8.22C43.218 8.42 41.378 8.7 39.498 9.06C37.658 9.38 35.958 9.84 34.398 10.44C32.878 11 31.638 11.7 30.678 12.54C29.718 13.38 29.238 14.38 29.238 15.54C29.238 16.46 29.758 17.26 30.798 17.94C31.838 18.58 33.218 19.14 34.938 19.62C36.658 20.06 38.498 20.42 40.458 20.7C42.458 20.98 44.418 21.2 46.338 21.36C48.258 21.48 49.958 21.56 51.438 21.6C52.958 21.64 54.058 21.66 54.738 21.66Z" fill="white"/>
<path d="M83.8511 36.42C82.0911 36.42 80.5511 36 79.2311 35.16C77.9111 34.32 77.2511 32.92 77.2511 30.96C77.2511 29.76 77.5711 28.52 78.2111 27.24C78.8911 25.92 79.7711 24.7 80.8511 23.58C81.9311 22.46 83.0911 21.56 84.3311 20.88C85.6111 20.16 86.8711 19.8 88.1111 19.8C88.7511 19.8 89.2911 19.98 89.7311 20.34C90.1711 20.66 90.3911 21.16 90.3911 21.84C90.3911 22.64 90.0311 23.46 89.3111 24.3C88.6311 25.14 87.7711 25.94 86.7311 26.7C85.7311 27.42 84.7111 28.06 83.6711 28.62C82.6311 29.14 81.7711 29.52 81.0911 29.76C80.9711 30.24 80.9111 30.74 80.9111 31.26C80.9111 32.18 81.1511 33 81.6311 33.72C82.1511 34.44 83.0311 34.8 84.2711 34.8C85.5111 34.8 86.6311 34.56 87.6311 34.08C88.6711 33.56 89.6111 32.94 90.4511 32.22C91.2911 31.46 92.0511 30.74 92.7311 30.06C93.2911 29.5 93.7511 29.04 94.1111 28.68C94.4711 28.28 94.7911 27.94 95.0711 27.66C95.1911 27.54 95.3711 27.48 95.6111 27.48C95.8111 27.48 95.9711 27.56 96.0911 27.72C96.2111 27.84 96.1711 28 95.9711 28.2C95.8111 28.4 95.5311 28.7 95.1311 29.1C94.7711 29.46 94.4111 29.84 94.0511 30.24C93.7311 30.6 93.4911 30.86 93.3311 31.02C91.5711 32.9 89.8911 34.28 88.2911 35.16C86.6911 36 85.2111 36.42 83.8511 36.42ZM81.2711 28.56C81.6711 28.48 82.2311 28.24 82.9511 27.84C83.7111 27.4 84.4511 26.9 85.1711 26.34C85.4911 26.06 85.9311 25.64 86.4911 25.08C87.0511 24.52 87.4311 24.04 87.6311 23.64C87.9111 23.12 88.0511 22.7 88.0511 22.38C88.0511 21.9 87.7911 21.66 87.2711 21.66C86.9911 21.66 86.6911 21.72 86.3711 21.84C85.9711 22 85.4911 22.4 84.9311 23.04C84.3711 23.68 83.9311 24.18 83.6111 24.54C83.1311 25.14 82.6711 25.8 82.2311 26.52C81.8311 27.2 81.5111 27.88 81.2711 28.56Z" fill="white"/>
<path d="M98.7114 36.84C96.7914 36.84 95.3914 36.22 94.5114 34.98C93.6314 33.7 93.1914 32.18 93.1914 30.42C93.1914 29.06 93.5914 27.38 94.3914 25.38C95.1914 23.38 96.2514 21.24 97.5714 18.96C98.9314 16.64 100.451 14.38 102.131 12.18C103.851 9.94 105.611 7.9 107.411 6.06C109.251 4.22 111.031 2.76 112.751 1.68C114.511 0.56 116.091 0 117.491 0C118.171 0 118.831 0.28 119.471 0.84C120.111 1.4 120.431 2.04 120.431 2.76C120.431 3.88 119.991 5.2 119.111 6.72C118.231 8.24 117.071 9.86 115.631 11.58C114.191 13.3 112.591 15.04 110.831 16.8C109.111 18.56 107.351 20.24 105.551 21.84C103.791 23.44 102.131 24.9 100.571 26.22C99.0514 27.5 97.7914 28.52 96.7914 29.28C96.7514 29.6 96.7114 29.92 96.6714 30.24C96.6714 30.52 96.6714 30.82 96.6714 31.14C96.6714 32.26 96.8914 33.16 97.3314 33.84C97.7714 34.52 98.5914 34.86 99.7914 34.86C101.071 34.86 102.311 34.56 103.511 33.96C104.751 33.36 105.911 32.62 106.991 31.74C108.071 30.86 109.011 30.02 109.811 29.22C110.651 28.38 111.311 27.72 111.791 27.24C111.831 27.2 111.891 27.18 111.971 27.18C112.131 27.18 112.251 27.3 112.331 27.54C112.451 27.74 112.471 27.9 112.391 28.02C111.951 28.58 111.411 29.18 110.771 29.82C110.171 30.46 109.691 30.98 109.331 31.38C107.971 32.74 106.371 34 104.531 35.16C102.691 36.28 100.751 36.84 98.7114 36.84ZM96.9114 27.6C98.2314 26.72 99.7514 25.48 101.471 23.88C103.231 22.24 105.011 20.44 106.811 18.48C108.651 16.48 110.331 14.48 111.851 12.48C113.411 10.44 114.671 8.54 115.631 6.78C116.591 4.98 117.071 3.52 117.071 2.4C117.071 2.2 117.031 2.02 116.951 1.86C116.911 1.66 116.751 1.56 116.471 1.56C115.671 1.56 114.731 1.98 113.651 2.82C112.571 3.62 111.451 4.68 110.291 6C109.131 7.28 107.991 8.64 106.871 10.08C105.791 11.52 104.831 12.86 103.991 14.1C103.151 15.34 102.511 16.3 102.071 16.98C101.031 18.66 100.051 20.4 99.1314 22.2C98.2114 24 97.4714 25.8 96.9114 27.6Z" fill="white"/>
<path d="M118.359 20.04C117.759 20.04 117.239 19.84 116.799 19.44C116.399 19 116.199 18.48 116.199 17.88C116.199 17.28 116.399 16.76 116.799 16.32C117.239 15.88 117.759 15.66 118.359 15.66C118.959 15.66 119.479 15.88 119.919 16.32C120.359 16.76 120.579 17.28 120.579 17.88C120.579 18.48 120.359 19 119.919 19.44C119.479 19.84 118.959 20.04 118.359 20.04ZM113.979 37.02C112.579 37.02 111.399 36.66 110.439 35.94C109.519 35.18 109.159 33.94 109.359 32.22C109.439 31.66 109.639 30.88 109.959 29.88C110.279 28.84 110.679 27.8 111.159 26.76C111.679 25.68 112.239 24.76 112.839 24C113.439 23.24 114.039 22.86 114.639 22.86C115.119 22.86 115.579 23.02 116.019 23.34C116.459 23.62 116.679 24.02 116.679 24.54C116.679 24.82 116.479 25.22 116.079 25.74C115.679 26.22 115.199 26.84 114.639 27.6C114.119 28.32 113.659 29.14 113.259 30.06C112.859 30.94 112.659 31.9 112.659 32.94C112.659 33.9 112.859 34.56 113.259 34.92C113.699 35.24 114.219 35.4 114.819 35.4C115.579 35.4 116.399 35.2 117.279 34.8C118.159 34.36 119.039 33.82 119.919 33.18C120.439 32.82 121.199 32.16 122.199 31.2C123.239 30.24 124.439 29.02 125.799 27.54C125.879 27.46 125.959 27.42 126.039 27.42C126.359 27.42 126.519 27.64 126.519 28.08C126.519 28.2 126.279 28.54 125.799 29.1C125.319 29.62 124.739 30.22 124.059 30.9C123.419 31.58 122.799 32.22 122.199 32.82C121.599 33.38 121.159 33.76 120.879 33.96C119.879 34.72 118.799 35.42 117.639 36.06C116.519 36.7 115.299 37.02 113.979 37.02Z" fill="white"/>
<path d="M135.415 36.24C134.175 36.04 133.115 35.86 132.235 35.7C131.395 35.5 130.335 35.4 129.055 35.4C128.295 35.4 127.515 35.48 126.715 35.64C125.955 35.8 125.175 35.88 124.375 35.88C123.575 35.88 123.175 35.62 123.175 35.1C123.175 34.82 123.275 34.54 123.475 34.26C123.635 34.06 124.115 33.84 124.915 33.6C125.715 33.32 126.555 33.06 127.435 32.82C128.315 32.58 128.895 32.4 129.175 32.28C130.295 31.84 131.435 31.18 132.595 30.3C133.795 29.42 134.995 28.46 136.195 27.42C137.435 26.38 138.635 25.4 139.795 24.48C138.995 24.32 138.075 24.16 137.035 24C135.995 23.84 135.015 23.76 134.095 23.76C132.655 23.76 131.375 24.12 130.255 24.84C129.175 25.56 128.135 26.5 127.135 27.66C126.135 28.78 125.015 29.98 123.775 31.26C123.655 31.38 123.515 31.44 123.355 31.44C122.995 31.44 122.815 31.3 122.815 31.02C122.815 30.82 122.915 30.62 123.115 30.42C123.315 30.18 123.615 29.84 124.015 29.4C124.415 28.96 124.815 28.5 125.215 28.02C125.655 27.5 125.975 27.1 126.175 26.82C127.735 24.58 129.235 23.06 130.675 22.26C132.155 21.46 133.595 21.06 134.995 21.06C136.115 21.06 137.195 21.3 138.235 21.78C139.275 22.26 140.295 22.5 141.295 22.5C142.135 22.5 142.735 22.34 143.095 22.02C143.495 21.66 143.875 21.48 144.235 21.48C144.555 21.48 144.835 21.6 145.075 21.84C145.315 22.04 145.435 22.3 145.435 22.62C145.435 23.06 145.235 23.36 144.835 23.52C144.435 23.64 144.075 23.76 143.755 23.88C142.315 24.48 140.935 25.3 139.615 26.34C138.335 27.38 137.075 28.48 135.835 29.64C134.595 30.8 133.315 31.86 131.995 32.82C132.595 33.1 133.415 33.34 134.455 33.54C135.535 33.74 136.535 33.84 137.455 33.84C139.055 33.84 140.475 33.46 141.715 32.7C142.995 31.9 144.095 31.02 145.015 30.06C145.975 29.06 146.755 28.28 147.355 27.72C147.475 27.6 147.575 27.54 147.655 27.54C147.895 27.54 148.015 27.72 148.015 28.08C148.015 28.36 147.935 28.58 147.775 28.74C146.895 29.7 145.815 30.78 144.535 31.98C143.255 33.14 141.895 34.16 140.455 35.04C139.015 35.88 137.615 36.3 136.255 36.3C136.095 36.3 135.955 36.3 135.835 36.3C135.715 36.3 135.575 36.28 135.415 36.24Z" fill="white"/>
<path d="M170.934 36.18C169.654 36.18 168.694 35.88 168.054 35.28C167.414 34.64 166.994 33.84 166.794 32.88C166.634 31.92 166.574 30.96 166.614 30C166.014 30.8 165.274 31.68 164.394 32.64C163.514 33.56 162.554 34.36 161.514 35.04C160.474 35.72 159.414 36.06 158.334 36.06C157.534 36.06 156.874 35.88 156.354 35.52C155.834 35.12 155.574 34.5 155.574 33.66C155.574 32.26 156.014 30.78 156.894 29.22C157.814 27.66 158.974 26.18 160.374 24.78C161.774 23.34 163.274 22.18 164.874 21.3C166.474 20.42 167.974 19.98 169.374 19.98C169.774 19.98 170.334 20.06 171.054 20.22C171.774 20.38 172.414 20.62 172.974 20.94C173.574 21.26 173.874 21.7 173.874 22.26C173.874 22.54 173.694 22.7 173.334 22.74C172.974 22.78 172.714 22.9 172.554 23.1C171.394 24.5 170.814 26.76 170.814 29.88C170.814 30.28 170.834 30.82 170.874 31.5C170.914 32.18 171.054 32.78 171.294 33.3C171.574 33.82 171.994 34.08 172.554 34.08C173.394 34.08 174.294 33.72 175.254 33C176.214 32.28 177.174 31.42 178.134 30.42C179.094 29.38 179.974 28.44 180.774 27.6C180.854 27.48 180.934 27.42 181.014 27.42C181.214 27.42 181.374 27.54 181.494 27.78C181.654 27.98 181.654 28.16 181.494 28.32C180.534 29.44 179.594 30.44 178.674 31.32C177.794 32.2 176.874 33.04 175.914 33.84C174.074 35.4 172.414 36.18 170.934 36.18ZM161.574 33.3C162.494 32.78 163.414 31.96 164.334 30.84C165.294 29.72 166.194 28.44 167.034 27C167.914 25.56 168.654 24.12 169.254 22.68C168.294 22.68 167.214 23.04 166.014 23.76C164.814 24.44 163.674 25.32 162.594 26.4C161.514 27.44 160.614 28.54 159.894 29.7C159.214 30.82 158.874 31.84 158.874 32.76C158.874 33.52 159.174 33.9 159.774 33.9C160.214 33.9 160.814 33.7 161.574 33.3Z" fill="white"/>
<path d="M191.154 36.42C188.034 36.42 186.474 34.86 186.474 31.74C186.474 30.78 186.694 29.66 187.134 28.38C187.614 27.06 188.114 25.94 188.634 25.02C186.394 26.74 184.594 28.38 183.234 29.94C181.874 31.46 180.894 32.58 180.294 33.3C180.134 33.46 179.934 33.8 179.694 34.32C179.454 34.8 179.174 35.26 178.854 35.7C178.534 36.1 178.174 36.3 177.774 36.3C177.374 36.3 177.094 36.14 176.934 35.82C176.774 35.5 176.694 35.18 176.694 34.86C176.694 34.66 176.754 34.44 176.874 34.2C177.394 33.28 177.994 31.88 178.674 30C179.394 28.08 179.974 26.14 180.414 24.18C180.494 23.86 180.554 23.6 180.594 23.4C180.674 23.2 180.774 22.98 180.894 22.74C181.094 22.3 181.514 21.94 182.154 21.66C182.834 21.38 183.374 21.24 183.774 21.24C183.974 21.24 184.174 21.3 184.374 21.42C184.614 21.5 184.734 21.68 184.734 21.96C184.734 22.16 184.614 22.6 184.374 23.28C184.134 23.96 183.834 24.72 183.474 25.56C183.154 26.4 182.834 27.2 182.514 27.96C182.234 28.68 182.034 29.18 181.914 29.46C182.234 29.18 182.734 28.72 183.414 28.08C184.094 27.4 184.854 26.68 185.694 25.92C186.574 25.12 187.454 24.36 188.334 23.64C189.214 22.92 189.994 22.32 190.674 21.84C191.354 21.36 191.854 21.12 192.174 21.12C192.734 21.12 193.214 21.26 193.614 21.54C194.054 21.78 194.274 22.22 194.274 22.86C194.274 23.14 194.054 23.6 193.614 24.24C193.174 24.88 192.654 25.64 192.054 26.52C191.454 27.4 190.934 28.34 190.494 29.34C190.054 30.34 189.834 31.34 189.834 32.34C189.834 33.06 190.014 33.68 190.374 34.2C190.774 34.68 191.314 34.92 191.994 34.92C193.074 34.92 194.114 34.68 195.114 34.2C196.114 33.68 197.034 33.06 197.874 32.34C198.714 31.62 199.454 30.92 200.094 30.24C200.734 29.52 201.234 28.96 201.594 28.56C201.634 28.52 201.674 28.5 201.714 28.5C201.794 28.5 201.894 28.56 202.014 28.68C202.134 28.76 202.194 28.9 202.194 29.1C202.194 29.3 202.114 29.48 201.954 29.64C201.034 30.72 200.014 31.78 198.894 32.82C197.814 33.86 196.634 34.72 195.354 35.4C194.074 36.08 192.674 36.42 191.154 36.42ZM184.854 17.76C184.534 17.76 184.374 17.62 184.374 17.34C184.374 16.42 184.654 15.74 185.214 15.3C185.814 14.82 186.574 14.58 187.494 14.58C188.254 14.58 189.034 14.72 189.834 15C190.794 15.32 191.514 15.48 191.994 15.48C192.674 15.48 193.214 15.12 193.614 14.4L193.794 14.34C194.034 14.34 194.214 14.46 194.334 14.7C194.374 15.62 194.094 16.32 193.494 16.8C192.894 17.28 192.114 17.52 191.154 17.52C190.434 17.52 189.674 17.38 188.874 17.1C187.914 16.78 187.194 16.62 186.714 16.62C185.954 16.62 185.394 16.98 185.034 17.7L184.854 17.76Z" fill="white"/>
<path d="M202.692 36.78C201.772 36.78 201.032 36.54 200.472 36.06C199.952 35.62 199.692 34.92 199.692 33.96C199.692 32.44 200.072 31 200.832 29.64C201.632 28.24 202.472 26.98 203.352 25.86C203.312 25.66 203.272 25.46 203.232 25.26C203.232 25.02 203.232 24.8 203.232 24.6C203.232 23.44 203.532 22.36 204.132 21.36C204.772 20.36 205.592 19.56 206.592 18.96C207.632 18.32 208.712 18 209.832 18C211.232 18 212.272 18.4 212.952 19.2C213.672 19.96 214.032 21.04 214.032 22.44C214.032 23.92 213.672 25.44 212.952 27C212.272 28.52 211.552 29.9 210.792 31.14C210.992 31.26 211.292 31.38 211.692 31.5C212.132 31.62 212.512 31.68 212.832 31.68C214.232 31.68 215.432 31.44 216.432 30.96C217.472 30.44 218.692 29.54 220.092 28.26C220.292 28.06 220.452 27.96 220.572 27.96C220.732 27.96 220.812 28.1 220.812 28.38C220.812 28.7 220.672 29.02 220.392 29.34C219.512 30.42 218.352 31.3 216.912 31.98C215.472 32.66 214.072 33 212.712 33C212.232 33 211.752 32.96 211.272 32.88C210.792 32.8 210.332 32.68 209.892 32.52C209.012 33.64 207.972 34.64 206.772 35.52C205.572 36.36 204.212 36.78 202.692 36.78ZM209.172 30.36C209.652 29.4 210.072 28.3 210.432 27.06C210.792 25.82 211.012 24.56 211.092 23.28C211.172 22.6 211.012 21.9 210.612 21.18C210.252 20.46 209.612 20.1 208.692 20.1C207.812 20.1 207.072 20.42 206.472 21.06C205.912 21.7 205.572 22.54 205.452 23.58C205.732 23.38 206.092 23.2 206.532 23.04C207.012 22.88 207.412 22.8 207.732 22.8C208.252 22.8 208.672 22.94 208.992 23.22C209.312 23.46 209.472 23.74 209.472 24.06C209.472 24.46 209.212 24.74 208.692 24.9C208.212 25.06 207.692 25.36 207.132 25.8C206.612 26.24 206.232 26.64 205.992 27C206.312 27.64 206.772 28.26 207.372 28.86C207.972 29.46 208.572 29.96 209.172 30.36ZM204.132 35.04C204.532 35.04 205.032 34.84 205.632 34.44C206.232 34 206.792 33.52 207.312 33C207.872 32.48 208.272 32.06 208.512 31.74C207.952 31.42 207.272 30.9 206.472 30.18C205.712 29.46 205.112 28.84 204.672 28.32C204.432 28.6 204.172 29.08 203.892 29.76C203.612 30.4 203.372 31.08 203.172 31.8C202.972 32.52 202.872 33.12 202.872 33.6C202.872 34.56 203.292 35.04 204.132 35.04Z" fill="white"/>
<path d="M236.078 36.42C234.318 36.42 232.778 36 231.458 35.16C230.138 34.32 229.478 32.92 229.478 30.96C229.478 29.76 229.798 28.52 230.438 27.24C231.118 25.92 231.998 24.7 233.078 23.58C234.158 22.46 235.318 21.56 236.558 20.88C237.838 20.16 239.098 19.8 240.338 19.8C240.978 19.8 241.518 19.98 241.958 20.34C242.398 20.66 242.618 21.16 242.618 21.84C242.618 22.64 242.258 23.46 241.538 24.3C240.858 25.14 239.998 25.94 238.958 26.7C237.958 27.42 236.938 28.06 235.898 28.62C234.858 29.14 233.998 29.52 233.318 29.76C233.198 30.24 233.138 30.74 233.138 31.26C233.138 32.18 233.378 33 233.858 33.72C234.378 34.44 235.258 34.8 236.498 34.8C237.738 34.8 238.858 34.56 239.858 34.08C240.898 33.56 241.838 32.94 242.678 32.22C243.518 31.46 244.278 30.74 244.958 30.06C245.518 29.5 245.978 29.04 246.338 28.68C246.698 28.28 247.018 27.94 247.298 27.66C247.418 27.54 247.598 27.48 247.838 27.48C248.038 27.48 248.198 27.56 248.318 27.72C248.438 27.84 248.398 28 248.198 28.2C248.038 28.4 247.758 28.7 247.358 29.1C246.998 29.46 246.638 29.84 246.278 30.24C245.958 30.6 245.718 30.86 245.558 31.02C243.798 32.9 242.118 34.28 240.518 35.16C238.918 36 237.438 36.42 236.078 36.42ZM233.498 28.56C233.898 28.48 234.458 28.24 235.178 27.84C235.938 27.4 236.678 26.9 237.398 26.34C237.718 26.06 238.158 25.64 238.718 25.08C239.278 24.52 239.658 24.04 239.858 23.64C240.138 23.12 240.278 22.7 240.278 22.38C240.278 21.9 240.018 21.66 239.498 21.66C239.218 21.66 238.918 21.72 238.598 21.84C238.198 22 237.718 22.4 237.158 23.04C236.598 23.68 236.158 24.18 235.838 24.54C235.358 25.14 234.898 25.8 234.458 26.52C234.058 27.2 233.738 27.88 233.498 28.56Z" fill="white"/>
<path d="M246.738 61.26C245.378 61.26 244.318 61 243.558 60.48C242.798 59.96 242.278 59.3 241.998 58.5C241.678 57.7 241.518 56.88 241.518 56.04C241.518 55.36 241.578 54.76 241.698 54.24C242.178 51.72 242.938 49.32 243.978 47.04C245.058 44.76 246.158 42.7 247.278 40.86C248.398 39.02 249.278 37.52 249.918 36.36C249.398 36.2 249.138 35.86 249.138 35.34C249.138 35.02 249.218 34.82 249.378 34.74C249.578 34.66 249.798 34.62 250.038 34.62C250.238 34.62 250.418 34.64 250.578 34.68C250.778 34.72 250.938 34.74 251.058 34.74C251.418 34.22 251.778 33.72 252.138 33.24C252.498 32.72 252.838 32.2 253.158 31.68C252.598 32.16 251.938 32.7 251.178 33.3C250.418 33.86 249.618 34.36 248.778 34.8C247.978 35.2 247.178 35.4 246.378 35.4C245.658 35.4 245.038 35.24 244.518 34.92C244.038 34.56 243.798 34 243.798 33.24C243.798 32.12 244.138 30.94 244.818 29.7C245.498 28.42 246.378 27.18 247.458 25.98C248.578 24.74 249.798 23.62 251.118 22.62C252.438 21.62 253.758 20.82 255.078 20.22C256.438 19.62 257.658 19.32 258.738 19.32C259.858 19.32 260.698 19.46 261.258 19.74C261.858 20.02 262.478 20.58 263.118 21.42C262.918 21.74 262.578 21.96 262.098 22.08C261.658 22.2 261.278 22.44 260.958 22.8C261.278 22.8 261.578 22.88 261.858 23.04C262.178 23.2 262.318 23.48 262.278 23.88C261.118 25.56 259.818 27.28 258.378 29.04C256.938 30.76 255.778 32.56 254.898 34.44H254.958C256.918 34.44 258.658 34.08 260.178 33.36C261.698 32.6 263.018 31.74 264.138 30.78C265.298 29.78 266.218 28.92 266.898 28.2C267.018 28.08 267.118 28.02 267.198 28.02C267.478 28.02 267.618 28.22 267.618 28.62C267.618 28.9 267.518 29.14 267.318 29.34C265.558 31.06 263.698 32.62 261.738 34.02C259.818 35.42 257.738 36.18 255.498 36.3C256.978 37.34 257.998 38.8 258.558 40.68C259.158 42.56 259.458 44.36 259.458 46.08C259.458 47.76 259.138 49.48 258.498 51.24C257.858 53 256.958 54.64 255.798 56.16C254.638 57.68 253.278 58.9 251.718 59.82C250.198 60.78 248.538 61.26 246.738 61.26ZM249.978 32.64C250.938 32.08 251.938 31.24 252.978 30.12C254.018 29 255.018 27.72 255.978 26.28C256.938 24.84 257.758 23.38 258.438 21.9C257.558 21.94 256.598 22.24 255.558 22.8C254.518 23.32 253.478 24 252.438 24.84C251.398 25.68 250.458 26.6 249.618 27.6C248.818 28.6 248.198 29.56 247.758 30.48C247.438 31.24 247.278 31.86 247.278 32.34C247.278 32.98 247.558 33.3 248.118 33.3C248.598 33.3 249.218 33.08 249.978 32.64ZM247.518 60.06C248.998 60.06 250.338 59.52 251.538 58.44C252.778 57.4 253.838 56.06 254.718 54.42C255.598 52.82 256.278 51.16 256.758 49.44C257.238 47.76 257.478 46.26 257.478 44.94C257.478 44.34 257.378 43.6 257.178 42.72C257.018 41.84 256.738 40.98 256.338 40.14C255.978 39.3 255.518 38.58 254.958 37.98C254.398 37.42 253.738 37.14 252.978 37.14L252.558 37.86C251.918 39.06 251.118 40.4 250.158 41.88C249.238 43.4 248.318 44.96 247.398 46.56C246.478 48.2 245.718 49.8 245.118 51.36C244.518 52.96 244.218 54.48 244.218 55.92C244.218 56.84 244.538 57.76 245.178 58.68C245.818 59.6 246.598 60.06 247.518 60.06Z" fill="white"/>
<path d="M279.134 36.9C277.894 36.9 276.934 36.5 276.254 35.7C275.574 34.9 275.234 33.88 275.234 32.64C275.234 32.08 275.314 31.48 275.474 30.84C275.634 30.16 275.894 29.48 276.254 28.8C275.854 29.24 275.354 29.82 274.754 30.54C274.154 31.26 273.494 31.98 272.774 32.7C272.094 33.42 271.374 34.02 270.614 34.5C269.894 34.98 269.214 35.22 268.574 35.22C267.454 35.22 266.694 34.84 266.294 34.08C265.934 33.32 265.754 32.46 265.754 31.5C265.754 30.86 265.894 30.08 266.174 29.16C266.494 28.24 266.914 27.34 267.434 26.46C267.954 25.58 268.554 24.86 269.234 24.3C269.914 23.7 270.634 23.4 271.394 23.4C271.674 23.4 271.994 23.46 272.354 23.58C272.754 23.7 272.954 23.92 272.954 24.24C272.954 24.4 272.754 24.76 272.354 25.32C271.994 25.84 271.554 26.44 271.034 27.12C270.554 27.8 270.114 28.5 269.714 29.22C269.354 29.9 269.174 30.52 269.174 31.08C269.174 31.44 269.214 31.8 269.294 32.16C269.414 32.48 269.694 32.64 270.134 32.64C270.934 32.64 271.734 32.26 272.534 31.5C273.374 30.7 274.214 29.72 275.054 28.56C275.894 27.4 276.694 26.26 277.454 25.14C278.254 23.98 278.974 23.02 279.614 22.26C280.294 21.46 280.874 21.06 281.354 21.06C281.914 21.06 282.414 21.26 282.854 21.66C283.334 22.02 283.574 22.48 283.574 23.04C283.054 23.84 282.374 24.88 281.534 26.16C280.694 27.4 279.934 28.66 279.254 29.94C278.614 31.22 278.294 32.32 278.294 33.24C278.294 34.08 278.474 34.66 278.834 34.98C279.234 35.3 279.694 35.46 280.214 35.46C280.734 35.46 281.334 35.32 282.014 35.04C282.694 34.76 283.294 34.48 283.814 34.2C285.294 33.32 286.674 32.22 287.954 30.9C289.234 29.58 290.334 28.46 291.254 27.54C291.374 27.42 291.494 27.36 291.614 27.36C291.814 27.36 291.914 27.52 291.914 27.84C291.914 28.12 291.794 28.42 291.554 28.74C290.754 29.66 289.674 30.74 288.314 31.98C286.994 33.18 285.634 34.24 284.234 35.16C283.474 35.64 282.654 36.04 281.774 36.36C280.894 36.72 280.014 36.9 279.134 36.9Z" fill="white"/>
<path d="M298.183 20.04C297.583 20.04 297.063 19.84 296.623 19.44C296.223 19 296.023 18.48 296.023 17.88C296.023 17.28 296.223 16.76 296.623 16.32C297.063 15.88 297.583 15.66 298.183 15.66C298.783 15.66 299.303 15.88 299.743 16.32C300.183 16.76 300.403 17.28 300.403 17.88C300.403 18.48 300.183 19 299.743 19.44C299.303 19.84 298.783 20.04 298.183 20.04ZM293.803 37.02C292.403 37.02 291.223 36.66 290.263 35.94C289.343 35.18 288.983 33.94 289.183 32.22C289.263 31.66 289.463 30.88 289.783 29.88C290.103 28.84 290.503 27.8 290.983 26.76C291.503 25.68 292.063 24.76 292.663 24C293.263 23.24 293.863 22.86 294.463 22.86C294.943 22.86 295.403 23.02 295.843 23.34C296.283 23.62 296.503 24.02 296.503 24.54C296.503 24.82 296.303 25.22 295.903 25.74C295.503 26.22 295.023 26.84 294.463 27.6C293.943 28.32 293.483 29.14 293.083 30.06C292.683 30.94 292.483 31.9 292.483 32.94C292.483 33.9 292.683 34.56 293.083 34.92C293.523 35.24 294.043 35.4 294.643 35.4C295.403 35.4 296.223 35.2 297.103 34.8C297.983 34.36 298.863 33.82 299.743 33.18C300.263 32.82 301.023 32.16 302.023 31.2C303.063 30.24 304.263 29.02 305.623 27.54C305.703 27.46 305.783 27.42 305.863 27.42C306.183 27.42 306.343 27.64 306.343 28.08C306.343 28.2 306.103 28.54 305.623 29.1C305.143 29.62 304.563 30.22 303.883 30.9C303.243 31.58 302.623 32.22 302.023 32.82C301.423 33.38 300.983 33.76 300.703 33.96C299.703 34.72 298.623 35.42 297.463 36.06C296.343 36.7 295.123 37.02 293.803 37.02Z" fill="white"/>
<path d="M293.519 54.6C292.719 54.6 292.139 54.36 291.779 53.88C291.419 53.4 291.239 52.78 291.239 52.02C291.239 51.02 291.679 49.78 292.559 48.3C293.399 46.82 294.499 45.22 295.859 43.5C297.179 41.82 298.599 40.14 300.119 38.46C301.599 36.82 302.999 35.28 304.319 33.84C305.639 32.4 306.699 31.24 307.499 30.36L307.679 28.8C307.759 28.36 307.799 27.84 307.799 27.24C307.839 26.64 307.859 26.2 307.859 25.92C307.379 26.72 306.739 27.66 305.939 28.74C305.139 29.78 304.339 30.64 303.539 31.32C303.379 31.44 303.239 31.5 303.119 31.5C302.919 31.5 302.799 31.36 302.759 31.08C302.759 30.8 302.799 30.6 302.879 30.48C303.879 29.4 304.799 28.26 305.639 27.06C306.479 25.82 306.899 24.3 306.899 22.5C306.899 22.1 306.759 21.82 306.479 21.66C306.239 21.5 306.119 21.32 306.119 21.12C306.119 20.8 306.359 20.58 306.839 20.46C307.359 20.3 307.739 20.22 307.979 20.22C309.219 20.22 310.039 20.58 310.439 21.3C310.879 21.98 311.099 22.82 311.099 23.82C311.099 24.54 311.039 25.3 310.919 26.1C310.799 26.9 310.659 27.64 310.499 28.32C311.059 27.56 311.779 26.62 312.659 25.5C313.539 24.38 314.519 23.28 315.599 22.2C316.719 21.12 317.839 20.22 318.959 19.5C320.119 18.74 321.199 18.36 322.199 18.36C323.199 18.36 323.899 18.66 324.299 19.26C324.739 19.86 324.959 20.62 324.959 21.54C324.959 22.82 324.639 24.22 323.999 25.74C323.399 27.22 322.599 28.66 321.599 30.06C320.639 31.46 319.599 32.7 318.479 33.78C317.359 34.86 316.279 35.62 315.239 36.06C315.359 36.1 315.479 36.12 315.599 36.12C315.719 36.12 315.839 36.12 315.959 36.12C317.239 36.12 318.659 35.76 320.219 35.04C321.819 34.28 323.379 33.34 324.899 32.22C326.419 31.1 327.719 29.96 328.799 28.8C328.999 28.6 329.239 28.38 329.519 28.14C329.839 27.9 330.079 27.94 330.239 28.26C330.239 28.3 330.239 28.34 330.239 28.38C330.279 28.38 330.299 28.4 330.299 28.44C330.299 28.6 330.199 28.8 329.999 29.04C329.799 29.28 329.559 29.54 329.279 29.82C327.719 31.34 326.139 32.72 324.539 33.96C322.979 35.2 321.319 36.16 319.559 36.84C317.799 37.56 315.819 37.92 313.619 37.92C312.859 37.92 312.099 37.86 311.339 37.74C310.579 37.62 309.819 37.48 309.059 37.32C308.579 38.28 307.899 39.48 307.019 40.92C306.179 42.4 305.219 43.92 304.139 45.48C303.059 47.08 301.919 48.56 300.719 49.92C299.479 51.32 298.259 52.44 297.059 53.28C295.819 54.16 294.639 54.6 293.519 54.6ZM312.959 35.7C313.879 35.26 314.799 34.54 315.719 33.54C316.679 32.54 317.539 31.4 318.299 30.12C319.099 28.84 319.719 27.56 320.159 26.28C320.639 24.96 320.879 23.8 320.879 22.8C320.879 22.48 320.839 22.16 320.759 21.84C320.679 21.48 320.439 21.3 320.039 21.3C319.359 21.3 318.619 21.64 317.819 22.32C317.019 22.96 316.219 23.8 315.419 24.84C314.619 25.88 313.859 26.98 313.139 28.14C312.459 29.3 311.859 30.38 311.339 31.38C310.819 32.38 310.439 33.18 310.199 33.78C311.399 34.06 312.319 34.7 312.959 35.7ZM294.719 51.78C295.759 51.78 296.779 51.44 297.779 50.76C298.739 50.12 299.639 49.3 300.479 48.3C301.279 47.34 301.979 46.36 302.579 45.36C303.179 44.4 303.659 43.6 304.019 42.96C304.739 41.64 305.399 40.18 305.999 38.58C306.599 36.98 306.979 35.44 307.139 33.96C306.819 34.36 306.179 35.1 305.219 36.18C304.299 37.3 303.239 38.58 302.039 40.02C300.839 41.5 299.679 43 298.559 44.52C297.439 46.04 296.519 47.42 295.799 48.66C295.039 49.94 294.659 50.92 294.659 51.6L294.719 51.78Z" fill="white"/>
<path d="M330.075 36.78C329.155 36.78 328.415 36.54 327.855 36.06C327.335 35.62 327.075 34.92 327.075 33.96C327.075 32.44 327.455 31 328.215 29.64C329.015 28.24 329.855 26.98 330.735 25.86C330.695 25.66 330.655 25.46 330.615 25.26C330.615 25.02 330.615 24.8 330.615 24.6C330.615 23.44 330.915 22.36 331.515 21.36C332.155 20.36 332.975 19.56 333.975 18.96C335.015 18.32 336.095 18 337.215 18C338.615 18 339.655 18.4 340.335 19.2C341.055 19.96 341.415 21.04 341.415 22.44C341.415 23.92 341.055 25.44 340.335 27C339.655 28.52 338.935 29.9 338.175 31.14C338.375 31.26 338.675 31.38 339.075 31.5C339.515 31.62 339.895 31.68 340.215 31.68C341.615 31.68 342.815 31.44 343.815 30.96C344.855 30.44 346.075 29.54 347.475 28.26C347.675 28.06 347.835 27.96 347.955 27.96C348.115 27.96 348.195 28.1 348.195 28.38C348.195 28.7 348.055 29.02 347.775 29.34C346.895 30.42 345.735 31.3 344.295 31.98C342.855 32.66 341.455 33 340.095 33C339.615 33 339.135 32.96 338.655 32.88C338.175 32.8 337.715 32.68 337.275 32.52C336.395 33.64 335.355 34.64 334.155 35.52C332.955 36.36 331.595 36.78 330.075 36.78ZM336.555 30.36C337.035 29.4 337.455 28.3 337.815 27.06C338.175 25.82 338.395 24.56 338.475 23.28C338.555 22.6 338.395 21.9 337.995 21.18C337.635 20.46 336.995 20.1 336.075 20.1C335.195 20.1 334.455 20.42 333.855 21.06C333.295 21.7 332.955 22.54 332.835 23.58C333.115 23.38 333.475 23.2 333.915 23.04C334.395 22.88 334.795 22.8 335.115 22.8C335.635 22.8 336.055 22.94 336.375 23.22C336.695 23.46 336.855 23.74 336.855 24.06C336.855 24.46 336.595 24.74 336.075 24.9C335.595 25.06 335.075 25.36 334.515 25.8C333.995 26.24 333.615 26.64 333.375 27C333.695 27.64 334.155 28.26 334.755 28.86C335.355 29.46 335.955 29.96 336.555 30.36ZM331.515 35.04C331.915 35.04 332.415 34.84 333.015 34.44C333.615 34 334.175 33.52 334.695 33C335.255 32.48 335.655 32.06 335.895 31.74C335.335 31.42 334.655 30.9 333.855 30.18C333.095 29.46 332.495 28.84 332.055 28.32C331.815 28.6 331.555 29.08 331.275 29.76C330.995 30.4 330.755 31.08 330.555 31.8C330.355 32.52 330.255 33.12 330.255 33.6C330.255 34.56 330.675 35.04 331.515 35.04Z" fill="white"/>
<path d="M352.922 29.46C352.642 29.94 352.342 30.18 352.022 30.18C351.702 30.18 351.542 30 351.542 29.64C351.542 29.48 351.602 29.32 351.722 29.16C351.762 29.12 352.022 28.66 352.502 27.78C352.982 26.9 353.602 25.76 354.362 24.36C355.122 22.96 355.962 21.44 356.882 19.8C357.842 18.12 358.802 16.46 359.762 14.82C360.762 13.18 361.702 11.68 362.582 10.32C363.462 8.92 364.242 7.8 364.922 6.96C365.602 6.12 366.102 5.7 366.422 5.7C366.862 5.7 367.422 5.92 368.102 6.36C368.782 6.76 369.202 7.18 369.362 7.62C368.842 8.14 368.022 9.1 366.902 10.5C365.782 11.9 364.522 13.52 363.122 15.36C361.722 17.16 360.322 19 358.922 20.88C357.562 22.76 356.322 24.46 355.202 25.98C354.122 27.5 353.362 28.66 352.922 29.46ZM348.962 36.96C348.442 36.96 348.002 36.8 347.642 36.48C347.322 36.16 347.162 35.76 347.162 35.28C347.162 34.68 347.382 34.18 347.822 33.78C348.302 33.34 348.862 33.12 349.502 33.12C350.022 33.12 350.442 33.28 350.762 33.6C351.082 33.88 351.242 34.26 351.242 34.74C351.242 35.34 351.022 35.86 350.582 36.3C350.142 36.74 349.602 36.96 348.962 36.96Z" fill="white"/>
</svg>
